<svg width="665" height="531" viewBox="0 0 665 531" fill="none" xmlns="http://www.w3.org/2000/svg">
<path d="M1 418.448C27.82 408.698 34.65 409.828 37.42 425.438C39.21 436.488 47.34 427.068 73.35 436.978C122.56 452.718 81.23 551.968 36.94 524.278C22.47 510.948 70.92 475.338 88.47 483.958C106.02 492.578 103.08 496.868 101.39 495.718C95.05 475.548 108.53 401.328 197.39 343.618C203.09 338.568 207.48 339.888 211.88 338.348C216.28 336.808 228.13 332.198 226.81 343.838C225.49 355.478 224.4 365.788 202.88 367.768C181.36 369.748 171.49 354.378 185.1 340.768C198.71 327.158 221.96 324.958 226.91 333.958C231.86 342.958 229.66 356.128 229.66 356.128C238.66 337.688 247 340.758 256.88 332.198C266.76 323.638 279.27 315.298 282.35 309.148C281.25 326.928 270.28 368.638 264.13 377.858C272.91 373.688 276.64 368.858 323.18 402.008C338.55 410.568 357.65 405.738 357.65 405.738C307.05 379.978 346.34 318.058 331.76 319.388C327.44 321.828 322.45 324.158 317.32 323.058C315.12 319.728 315.94 314.738 314.95 310.848C321.75 315.678 319.86 328.668 308.85 318.778C306.16 317.098 303.85 314.988 302.28 312.228C292.36 301.398 283.54 297.838 282.22 281.268C281.27 279.638 281.38 276.958 283.85 277.258C290.45 275.948 296.01 271.138 301.24 267.118C296.29 278.468 308.37 285.178 317.13 289.128C319.36 290.238 317.65 293.338 317.37 295.188C326.75 282.498 297.49 274.478 311.85 269.388C330.6 262.118 319.21 263.498 320.26 251.398C325.9 247.808 333.05 250.848 339.33 250.438C340.6 250.368 340.91 251.408 340.32 252.418C339.87 256.638 341.52 262.668 345.28 264.998C346.63 267.188 349.53 267.678 351.12 269.698C351.44 275.478 342.48 279.968 343.75 287.718C342.16 283.418 340.8 278.108 345.19 275.018C349.1 272.058 351.31 267.358 354.96 264.328C356.1 263.978 357.17 264.958 358.25 265.458C361.27 266.548 364.67 265.338 367.81 265.218C371.38 265.218 366.83 275.958 365.97 277.918C371.75 270.288 370.45 273.258 378.45 269.758C378.33 264.668 373.34 260.688 373.74 255.268C374.21 252.378 370.74 253.158 369.7 251.208C363.2 248.188 363.38 244.648 366.17 238.368C361.77 242.208 360.54 244.478 354.51 241.618C346.4 240.988 344.64 243.858 337.76 237.528C332.26 237.238 326.54 239.488 320.83 238.778C316.33 240.878 311.11 244.568 305.96 243.428C317 250.868 338.48 256.568 345.95 242.188C340.31 241.368 336.02 236.508 331.88 232.928C327.52 227.248 321.35 245.028 305.35 243.578C304.83 247.348 303.04 250.768 300.73 253.698C300.64 257.248 300.71 261.078 299.04 264.338C297.66 265.848 295.88 262.288 294.78 263.888C290.86 270.638 280.94 276.338 273.63 271.648C269.73 267.668 270.17 261.218 266.84 256.568C276.34 259.928 283.47 257.968 272.83 249.528C270.62 249.038 268.83 247.348 266.48 247.328C263.55 247.628 261.44 245.648 260.35 242.988C256.73 237.788 268.27 237.718 257.74 236.118C246.98 228.528 257.4 223.488 258 226.868C252.52 229.968 248.47 221.478 248.5 216.918C248.17 212.088 252.76 209.258 255.05 205.518C256.04 201.508 246.87 203.628 246.91 190.928C247.05 186.548 245.08 182.618 244.84 178.288C245.8 175.468 243.47 173.038 243.9 170.158C243.82 166.528 245.34 163.688 247.21 160.758C247.57 159.798 247.84 158.648 248.76 158.188C257.84 156.218 260.9 146.758 268.46 142.388C283.36 135.108 302.68 140.208 312.11 153.988C317.88 178.568 300.61 150.868 285.97 156.388C282.22 157.618 281.38 162.888 285 164.828C296.29 168.118 297.38 148.778 279.64 158.118C273.66 161.388 263.92 167.798 271.91 155.788C280.76 139.088 313.66 153.258 305.71 166.758C299.6 170.808 272.16 174.028 275.74 161.738C287.68 150.118 298.54 158.048 310.43 164.168C311.83 164.548 313.1 163.998 314.14 163.158C314.99 162.848 315.66 163.918 315.91 164.788C318.61 172.958 317.59 181.468 315.93 189.668C315.53 193.608 318.72 215.658 312.26 213.268C308.6 211.508 309.52 203.818 313.13 202.578C317.37 204.558 314.24 214.758 321.02 218.548C324.55 220.568 329.37 218.648 332.63 216.908C337.66 212.698 334.63 204.048 333.48 198.488C331.43 189.208 330.99 178.278 334.4 169.368C338.46 166.228 344.18 165.548 346.81 160.388C371.25 137.878 368.62 169.088 356.78 159.778C352.45 150.538 366.78 152.078 371.79 154.188C376.66 157.988 386.39 160.638 379.84 151.178C370.97 142.138 353.37 141.428 346.39 153.118C344.58 156.298 340.42 160.508 342.59 164.218C355.97 164.008 360.87 173.928 375.17 163.348C386.35 153.738 355.86 149.928 351.11 155.838C346.19 157.118 336.73 174.858 334.9 162.018C335.89 139.578 367.03 125.578 384.3 140.488C390.76 145.238 397.94 152.618 406.53 150.468C421.1 143.088 429.68 122.928 448.09 124.638C444.26 108.278 478.51 113.008 459.01 143.818C440.95 168.078 426.76 149.538 413.51 156.078C417.59 149.828 408.7 142.758 412.62 136.478C414.81 134.058 415.43 130.758 416.06 127.658C415.74 118.638 404.91 111.158 409.1 101.678C411.47 96.768 420.92 90.498 424.92 96.498C425.08 110.348 399.37 97.208 398.25 108.178C398.76 115.038 404.58 120.838 410.77 123.238C418.73 126.498 426.92 123.158 433.54 118.568C438.26 116.038 443.79 114.948 447.95 111.578C451.07 108.758 457.95 101.348 451.74 98.458C451.08 98.268 450.3 98.298 449.82 98.788C448.23 104.268 457.97 101.538 457.94 97.378C460.62 89.428 458.05 81.348 451.5 76.288C449.53 75.278 444.78 73.358 443.57 76.018C451.37 75.818 455.44 65.458 450.8 59.608C446.35 54.388 440.4 51.238 434.46 47.938C431.7 45.368 425.88 48.388 428.77 51.968C430.99 54.328 435.04 52.218 435.29 49.238C435.07 45.138 434.38 40.428 430.91 37.878C417.81 37.728 417.19 30.418 408.7 23.018C405.23 20.528 398.24 17.358 397.69 24.118C399.78 32.928 400.12 44.488 390 48.418C384.3 48.738 391.35 43.708 399.78 52.228C413.04 65.768 413.84 72.368 396.24 81.158C393.22 85.368 397.13 91.308 394.44 95.698C391.47 100.388 385.01 100.228 380.2 99.108C375.24 97.318 365.77 84.618 374.47 82.538C379.85 84.478 373.68 89.238 370.41 89.258C364.26 90.138 358.99 86.008 353.23 84.598C348.2 83.168 342.91 82.918 337.68 83.058C344.57 78.688 347.29 62.288 336.04 63.228C334.68 68.068 345.67 67.078 348.52 65.858C354.15 63.108 361.59 61.998 365.31 56.608C370.55 44.078 341.61 43.558 367.04 31.708C369.93 30.858 366.85 27.098 366.2 30.208C367.51 36.398 376.53 35.648 381.5 35.478C388.24 33.798 394.47 26.608 395.06 19.608C393.79 13.698 388.56 8.44797 382.25 8.91797C378.01 8.89797 371.08 10.208 370.3 15.188C370.41 16.838 372.71 15.668 372.91 14.568C373.46 10.508 368.2 7.25797 364.78 6.42797C361.69 5.78797 358.56 5.62797 355.48 5.61797C353.83 4.53797 352.33 3.06797 350.18 2.97797C343.39 1.66797 338.05 6.62797 331.72 8.15797C328.61 9.80797 319.57 8.96797 324.54 4.28797C334.64 -0.0420332 341.65 7.45797 336.56 17.098C333.8 19.358 332.4 22.918 329.64 25.168C327.62 26.668 325.58 28.498 325.78 31.198C326.2 41.588 339.16 32.598 333.57 26.508C330.89 23.148 326.47 24.478 323.1 23.408C320.65 18.378 312.49 21.118 311.96 16.298C313.52 -2.13203 310.25 -0.502033 296.2 8.61797C293.19 11.378 289.59 12.828 285.58 11.728C279.24 10.968 279.07 15.358 282.68 19.328C283.49 20.228 282.94 21.278 281.85 21.568C279.08 22.558 273.93 21.318 274.13 17.758C273.41 14.898 266.97 17.248 265.17 18.378C261.5 21.038 259.29 25.258 255.91 28.278C247.92 34.928 233.99 33.168 230.08 44.648C230.12 50.128 236.18 52.218 238.9 56.268C240.92 58.918 237.03 61.128 234.69 60.988C230.02 58.038 232.84 51.128 235.78 47.768C242.85 36.798 282.11 32.118 288.72 44.868C291.24 47.658 301.99 59.438 295.4 61.688C290.7 55.658 299.78 43.808 305.97 41.718C311.9 38.878 316.02 45.978 314.22 51.178C313.67 54.298 311.57 57.118 311.58 60.328C312.57 64.858 322.78 64.808 326.38 67.198C349.51 72.928 331.21 95.698 315.4 92.318C304.57 84.398 304.07 95.298 295.07 91.088C291.84 88.468 287.27 85.818 285.63 81.928C280.14 97.818 274.04 102.728 256.87 99.098C254.4 100.178 255.3 104.858 251.44 106.348C243.21 111.208 232.3 114.918 227.49 123.658C226.01 127.438 228.97 130.838 231.72 133.098C235.63 135.258 244.41 154.178 247.82 144.098C249.39 141.218 245.61 126.088 249.64 127.158C249.67 134.808 239.86 135.888 239.73 126.918C241.99 101.898 262.66 120.918 242.21 94.088C240.35 94.018 239.32 91.278 238.38 89.858C236.86 87.208 237.82 83.188 235.68 80.988C233.31 82.098 231 84.388 228.13 83.758C221.75 79.248 227.09 68.318 223.52 61.998C221.72 59.148 218.5 61.158 217.74 63.728C216.79 66.508 219.02 69.538 218.41 72.418C214.89 80.598 206.41 86.188 204.53 95.278C201.23 104.208 212.94 114.038 218.98 104.798C212.84 90.848 184.2 121.518 211.41 125.118C216.39 128.188 201.12 134.938 218.8 146.008C216.16 145.948 213.64 143.028 210.99 142.178C203.48 140.218 212.47 153.068 215.29 154.128C218.72 160.768 230.01 168.218 237.06 163.058C235.48 159.328 228.4 160.988 225.46 157.978C218.69 158.818 224.29 170.618 228.1 172.928C234.47 178.328 244.53 175.208 250.17 181.698C252.29 185.728 254.82 189.878 255.72 194.388C256.67 199.428 256.47 205.068 260.6 208.778C263.01 215.918 273.76 218.148 274.03 226.458C274.91 234.228 276.47 233.048 282.07 236.698C282.56 237.398 283.16 238.068 284.1 238.028C287.22 237.948 289.99 235.358 293.13 236.678C294.9 236.838 296.37 235.348 297.3 233.828C301.55 228.408 308.53 224.708 314.46 221.118C320.79 218.158 327.12 221.758 332.48 216.098C337.27 213.298 348.74 214.058 347.42 206.148C347.13 204.398 346.42 202.138 344.42 201.818C344.94 204.028 346.98 205.878 346.74 208.148C344.88 214.118 335.61 213.988 347.41 219.228C357.89 219.308 367.42 224.908 373.06 233.788C383.15 237.718 380.73 238.428 386.73 246.228C387.62 235.928 397.17 240.838 396.72 236.388C395.36 228.838 401.27 223.848 402.68 217.138C402.52 213.148 403.89 209.408 406.49 206.328C411.77 201.078 414.94 194.548 413.75 186.938C412.15 168.178 410.17 158.678 433.42 164.018C437.87 164.608 442.07 160.918 446.48 162.288C448.72 167.168 443.65 172.898 440.04 175.908C432.82 182.048 433.32 194.338 425.25 199.518C415.43 202.558 414.44 187.138 421.07 189.638C423.46 194.208 419.34 200.488 422.55 205.058C427.61 209.238 428.8 216.028 424.3 221.198C422.64 222.438 419.52 225.998 417.6 223.618C426.71 221.688 419.94 241.068 415.81 243.838C406.94 249.348 406.16 260.018 404.84 269.248C402.81 273.688 387.75 283.668 386.48 274.938C389.81 274.278 390.63 280.308 390.97 282.778C390.25 286.048 386.89 293.748 384.05 294.748C380.53 311.608 363.41 326.848 345.81 319.208C343.27 318.458 340.28 315.998 341.08 313.228C343.84 311.888 346.53 315.128 346.38 317.798C346.56 321.828 343.12 327.188 338.67 324.618C338.49 324.528 338.53 324.318 338.73 324.268C345.69 322.128 349.11 332.878 356.24 331.218C371.98 326.708 390.3 321.098 400.31 307.458C409.93 297.298 413.33 293.638 415.6 279.138C421.08 254.298 402.39 266.948 418.21 302.048C423.77 323.898 419.67 348.338 407.54 367.398C398.72 379.368 383.93 386.138 375.76 398.498C369.66 410.858 372.5 425.888 364.34 437.388C324.23 502.128 253.14 456.178 233.48 400.398C231.2 392.428 224.08 369.488 237.43 369.328C242.9 387.088 241.13 407.758 249.25 425.328C252.2 432.048 258.16 437.298 262.08 443.738C270.62 453.428 282.35 459.418 293.24 465.998C300.86 470.518 310.73 468.368 318.32 471.928C337.45 476.298 358.87 474.728 376.97 467.028C386.62 466.538 394.31 459.378 401.61 454.048C423.55 441.758 436 422.458 446.42 400.408C452.08 390.668 455.94 380.338 457.57 369.188C458.78 358.208 462.71 347.878 462.16 336.738C466.22 320.178 476.73 297.878 496.59 301.288C503.85 302.808 512.18 304.598 517.8 309.648C523.54 316.888 530.98 325.108 532.45 334.328C530.8 358.978 528.47 376.838 502.7 390.398C476.93 403.958 448.46 393.268 448.37 370.458C448.28 347.648 468.93 328.878 491.2 323.228C525.59 316.158 576.13 347.858 582.62 377.468C578.42 400.508 564.58 340.828 605.52 334.908C602.2 330.418 599.41 323.238 621.95 306.888C644.49 290.538 662.81 252.378 662.81 252.378" stroke="url(#paint0_linear_1_5)"
    stroke-linejoin="round"
    stroke-linecap="round"
    stroke-width="3"
    stroke-miterlimit="10"
    class="svg-elem-1"></path>
<defs>

<linearGradient id="paint0_linear_1_5" x1="156.504" y1="0.497986" x2="156.504" y2="472.803" gradientUnits="userSpaceOnUse">
  <stop offset="0%" stop-color="#D4B3F8">
    <animate attributeName="stop-color" values="#D4B3F8;#A3C4F3;#8A7DF0;#D4B3F8" dur="5s" repeatCount="indefinite"></animate>
  </stop>
  <stop offset="100%" stop-color="#8A7DF0">
    <animate attributeName="stop-color" values="#8A7DF0;#A3C4F3;#D4B3F8;#8A7DF0" dur="5s" repeatCount="indefinite"></animate>
  </stop>
</linearGradient>
</defs>
</svg>