<svg width="648" height="496" viewBox="0 0 648 496" fill="none" xmlns="http://www.w3.org/2000/svg">
<path d="M647.83 470.157C625.9 470.677 619.93 464.187 604.49 455.987C589.05 447.787 582.48 428.827 569.13 430.697C555.78 432.567 552.49 450.467 555.78 453.597C559.07 456.727 562.12 449.497 561.23 431.887C560.34 414.277 551.61 386.897 544.29 371.677C536.97 356.457 529 339.967 516.24 348.697C503.48 357.427 491.47 402.937 489.31 409.427C487.15 415.917 479.76 455.827 489.46 454.637C499.16 453.447 507.22 410.917 508.93 399.657C510.64 388.397 511.54 371.757 510.5 353.847C509.46 335.937 504.83 323.857 497.22 315.727C489.61 307.597 466.04 296.327 459.84 301.257C453.64 306.187 448.05 322.747 448.05 339.227C448.05 355.707 447.83 371.527 453.57 372.797C459.31 374.067 458.94 361.307 461.18 346.537C463.42 331.767 459.84 315.427 456.78 304.387C453.72 293.347 439.92 282.077 430.37 278.497C420.82 274.917 406.12 269.737 395.9 280.887C385.68 292.037 384.93 308.267 387.25 309.837C389.57 311.407 399.19 300.067 401.35 284.547C403.51 269.027 413.44 261.497 411.5 252.397C409.56 243.297 402.85 227.027 400.76 215.837C398.67 204.647 402.55 199.277 402.7 191.967C402.77 173.317 393.6 183.607 397.93 186.517C402.26 189.427 405.39 184.207 408.37 178.837C411.35 173.467 411.5 167.567 414.19 156.157C416.88 144.747 424.78 135.197 422.4 132.727C420.02 130.257 409.79 134.737 408.9 132.947C408.01 131.157 411.59 128.317 419.72 124.067C427.85 119.817 427.93 119.667 429.27 106.167C430.61 92.667 429.12 84.977 424.42 77.667C419.72 70.357 410.84 84.827 412.93 66.927C415.02 49.027 405.54 55.367 394.65 45.737C383.76 36.107 391.14 26.417 392.64 26.117C394.14 25.817 396.37 26.937 396.52 32.977C396.67 39.017 388.09 48.717 384.58 52.747C381.07 56.777 375.7 72.817 375.18 61.997C374.66 51.177 370.41 40.137 368.91 41.327C363.31 45.957 368.84 56.327 372.04 56.027C375.24 55.727 379.65 47.967 382.34 39.837C385.03 31.707 381 26.777 374.06 17.757C367.12 8.73696 357.42 6.93697 352.5 7.90697C347.58 8.87697 341.38 10.817 336.24 10.217C331.1 9.61696 330.12 6.33696 332.44 4.32696C334.76 2.31696 342.29 3.65697 342.66 13.057C343.03 22.457 338.33 26.937 336.69 30.217C335.05 33.497 339.97 36.107 339.45 36.787C338.93 37.467 337.88 39.027 331.09 34.397C324.3 29.767 326.91 23.957 328.93 20.147C325.8 22.237 324.6 21.567 320.05 20.667C315.5 19.767 319.01 10.597 315.42 5.14697C311.83 -0.303035 307.36 2.60697 298.11 4.39697C288.86 6.18696 281.77 12.377 277.3 16.927C272.83 21.477 278.05 28.047 278.34 32.747C278.63 37.447 274.91 40.727 273.12 40.727C271.33 40.727 267.82 36.027 274.39 26.927C280.96 17.827 280.96 15.737 278.42 15.217C275.88 14.697 270.21 14.697 256.49 25.287C242.77 35.877 232.62 49.237 228.74 56.327C224.86 63.417 231.65 74.237 233.28 85.557C234.91 96.877 239.82 98.597 249.73 102.617C249.73 102.617 245.07 99.847 241.67 93.537C230.71 75.387 232.02 72.607 225.59 80.997C219.16 89.387 219.39 120.607 225.67 129.547C231.95 138.487 234.33 134.457 231.87 127.587C229.41 120.717 225.6 114.647 227.95 115.197C238.7 118.727 237.55 125.717 234.89 132.787C232.23 139.857 233.73 145.067 243.12 159.787C252.51 174.507 244.86 190.617 240.92 188.997C229.91 183.317 236.52 169.757 239.53 163.727C242.54 157.697 236.86 147.737 240.69 140.777C244.52 133.817 253.44 124.317 249.96 108.677C246.48 93.037 251.62 89.557 258.41 86.497C265.2 83.437 268.77 80.757 270.66 76.447C272.55 72.137 265.87 47.917 263.38 47.817C260.89 47.717 252.18 62.277 258.31 73.187C264.44 84.097 275.35 80.467 281.77 80.367C288.19 80.267 296.13 76.917 305.8 70.887C292.83 68.857 288.66 47.627 282.92 49.537C277.18 51.447 283.97 71.557 294.6 73.467C305.23 75.377 307.72 68.107 316.04 70.977C324.36 73.847 318.34 90.407 323.32 86.967C328.3 83.527 333.28 72.227 323.7 59.877C314.12 47.527 315.66 31.157 313.36 32.307C302.06 39.297 312.12 53.077 317.57 59.017C323.02 64.957 334.52 65.907 338.73 69.647C342.94 73.387 349.84 85.347 353.28 83.437C356.72 81.527 351.46 76.257 346.58 69.457C341.7 62.657 343.9 60.747 341.7 47.537C345.15 59.697 347.83 62.377 357.31 70.607C366.79 78.837 355.2 85.067 360.76 91.667C366.32 98.267 379.52 102.777 384.31 93.677C389.1 84.577 381.05 75.867 378.66 86.207C376.27 96.547 384.21 104.207 386.7 109.467C389.19 114.727 385.65 120.377 391.1 121.717C396.55 123.057 403.35 115.777 406.71 106.877C410.07 97.977 412.36 92.137 414.46 92.517C416.56 92.897 417.81 104.007 414.94 113.197C412.07 122.387 408.43 123.247 404.79 124.017C401.15 124.787 400.77 131.387 402.11 135.407C403.45 139.427 408.14 147.377 399.43 152.447C390.72 157.517 389.76 161.157 386.12 170.067C385.67 159.227 389.66 143.927 386.79 141.247C383.92 138.567 376.26 143.637 370.23 143.637C364.2 143.637 355.39 135.887 347.25 136.837C339.11 137.787 342.46 145.927 348.4 145.257C354.34 144.587 357.4 138.077 349.84 136.637C342.28 135.197 335.96 140.947 332.8 142.377C329.83 132.517 352.04 126.197 358.07 129.547C370.61 138.357 368.31 141.707 366.11 143.237C363.91 144.767 361.42 149.077 351.27 148.787C341.12 148.497 331.64 144.577 332.03 142.467C334.81 128.677 348.69 129.067 356.06 129.157C369.37 125.137 374.35 128.007 378.94 131.937C383.53 135.867 386.02 136.627 387.46 136.337C388.9 136.047 387.46 129.447 380.76 120.447C374.06 111.447 369.18 111.737 358.07 116.807C346.96 121.877 341.53 122.197 335.97 123.007C330.41 123.817 325.9 122.117 322.9 126.137C319.9 130.157 327.55 130.667 328.07 132.817C328.59 134.967 322.54 140.907 321.83 147.557C321.12 154.207 322.14 178.877 323.26 182.147C324.38 185.417 323.32 193.437 323.98 196.817C331.44 200.737 332.21 198.287 333.42 196.867C334.63 195.447 336.42 191.707 332.65 188.447C328.88 185.187 330.97 184.297 332.39 184.997C333.81 185.697 336.94 189.547 334.19 195.857C331.44 202.167 327.08 197.467 323.66 197.127C320.24 196.787 314.87 205.447 310.85 205.777C306.83 206.107 302.13 200.607 299.78 197.927C297.43 195.247 300.51 185.397 299.85 184.717C299.19 184.037 294.62 183.107 292.47 190.087C290.32 197.067 295.76 199.817 298.37 195.387C300.98 190.957 302.66 162.117 302.66 148.097C302.66 134.077 297.5 132.267 291.96 130.347C291.96 130.347 296.09 136.887 296.65 142.697C294.26 139.957 286.92 135.657 279.97 135.507C273.02 135.357 268.67 136.917 266.61 139.677C266.61 147.177 271.7 147.377 281.12 147.787C290.54 148.197 297.07 146.617 296.32 143.937C295.57 141.257 291.44 135.957 281.54 135.337C271.64 134.717 272.53 144.137 279.75 144.347C286.97 144.557 286.56 136.437 280.16 135.817C268.61 134.717 263.52 142.627 260.77 140.907C258.02 139.187 264.9 130.247 272.74 127.637C280.58 125.027 287.39 128.257 293.64 130.867C303.4 131.277 306.91 128.527 308.15 125.297C309.39 122.067 308.91 121.167 295.36 120.007C281.81 118.847 274.94 106.187 262.49 109.277C250.04 112.367 249.29 118.147 247.29 126.747C245.29 135.347 245.09 167.047 244.95 175.087C244.81 183.127 246.26 195.787 250.86 200.667C255.46 205.547 256.43 208.717 256.43 212.497C256.43 216.277 255.19 218.477 260.21 231.067C265.23 243.657 280.22 236.847 282.08 240.897C283.94 244.947 263.72 251.277 266.61 254.577C269.5 257.877 283.73 245.977 290.54 244.327C297.35 242.677 292.4 257.187 291.37 263.717C290.34 270.247 291.65 276.437 290.75 276.717C289.85 276.997 287.38 276.997 285.87 266.817C284.36 256.637 292.4 246.667 298.04 244.947C303.68 243.227 307.32 248.527 312.41 249.207C317.5 249.887 314.2 247.147 325.96 248.037C337.72 248.927 339.3 249.347 345.49 245.977C351.68 242.607 355.6 248.587 348.03 253.407C340.46 258.227 342.12 262.207 343.56 271.197C333.8 264.237 333.73 254.507 333.25 250.657C333.25 250.657 332.36 246.257 323.76 247.837C315.16 249.417 317.93 254.887 316.93 258.627C315.93 262.367 313.77 264.047 307.94 267.517C302.11 270.987 303.05 279.137 304.52 282.827C305.99 286.517 308.25 296.187 306.36 300.817C304.47 305.447 296.95 306.447 290.95 307.237C284.95 308.027 287.01 305.347 287.9 302.717C288.79 300.087 291.06 295.827 287.06 292.457C283.06 289.087 278.8 295.037 273.6 298.457C276.39 294.297 278.91 287.257 275.18 283.047C271.45 278.837 262.73 280.037 262.52 278.937C262.31 277.837 263.72 277.087 262.44 275.917C261.16 274.747 256.2 273.747 252.13 266.607C248.06 259.467 251.57 251.777 252.97 251.387C254.37 250.997 256.98 251.447 257.71 259.077C258.44 266.707 255.59 276.247 250.69 276.527C245.79 276.807 237.31 258.237 241.83 248.147C246.35 238.057 245.4 239.447 241.77 235.437C234.63 227.077 236.59 211.747 243.28 207.617C249.97 203.487 253.43 213.137 251.14 219.097C248.85 225.057 248.69 232.027 247.46 231.867C246.23 231.707 245.23 228.247 244.9 222.387C244.57 216.527 252.04 208.337 254.66 207.167C257.28 205.997 259.96 211.297 267.87 210.287C275.78 209.277 268.82 227.797 267.31 227.677C262.94 227.357 265.25 209.447 279.24 205.047C293.23 200.647 311.16 207.457 311.16 207.457C311.16 207.457 308.59 212.777 300.62 216.727C300.62 216.727 310.39 210.767 311.47 208.107C313.05 210.477 330.43 220.177 336.18 225.057C334.82 223.257 328.06 218.737 324.26 217.877C320.46 217.017 313.7 220.537 310.61 220.607C307.52 220.677 303.86 216.797 299.62 217.447C295.38 218.097 288.99 222.407 284.97 223.557C284.97 223.557 284.83 220.467 291.58 211.347C298.33 202.227 313.13 207.687 313.13 207.687C325.27 207.827 323.76 202.727 329.8 203.087C340 203.227 340.65 212.277 338.71 218.177C338.71 218.177 338.28 214.007 336.05 209.987C333.82 205.967 336.7 202.377 339.57 202.947C348.98 204.887 353.72 212.717 353.51 215.017C353.3 217.317 350.42 219.827 345.18 223.347C339.94 226.867 336.99 236.497 321.12 238.357C301.44 240.797 293.32 231.607 286.28 224.927C286.28 224.927 290.09 225.937 293.32 224.927C302.01 222.417 304.17 224.567 309.34 226.077C314.51 227.587 320.04 223.847 322.63 223.127C325.22 222.407 332.9 225.717 336.49 226.147C340.08 226.577 345.23 229.147 346.94 230.647C348.65 232.147 348.53 236.877 349.83 236.457C351.13 236.037 354.81 234.157 355.64 227.337C356.47 220.517 357.56 212.657 359.49 211.987C361.42 211.317 371.03 220.097 370.07 227.047C369.11 233.997 359.82 240.637 359.74 247.757C359.66 254.877 364.22 257.167 364.97 254.447C368.82 238.887 373.71 245.497 373.88 235.707C374.05 225.917 376.43 219.347 376.64 216.467C376.85 213.587 372.37 208.017 373.25 203.917C374.13 199.817 380.82 186.557 386.3 175.637C386.3 175.637 385.51 183.627 390.57 188.857C395.63 194.087 395.71 201.447 394.96 204.457C394.21 207.467 393.75 210.857 396.05 217.127C398.35 223.397 399.06 227.337 399.15 230.887C399.24 234.437 398.02 240.887 391.12 252.557C393.63 243.107 386.98 229.337 383.93 223.527C381.04 233.107 386.23 247.707 385.48 251.557C384.73 255.407 380.13 260.757 377.37 265.357C384.1 262.137 385.61 266.817 385.9 271.547C386.19 276.277 381.59 292.837 371.09 300.327C360.59 307.817 358.71 315.847 360.38 316.887C362.05 317.927 366.4 315.257 368.33 310.947C370.26 306.637 371.22 289.407 371.13 286.227C371.04 283.047 363.56 261.887 362.01 262.507C360.46 263.127 363.85 271.287 364.35 280.197C364.85 289.107 360.42 295.677 356.4 296.257C352.38 296.837 347.07 280.107 343.64 280.867C340.21 281.627 340.46 297.727 339.96 299.687C339.96 299.687 339.04 299.357 337.87 296.387C336.7 293.417 329.5 295.047 323.19 292.417C316.88 289.787 317.12 275.557 315.08 275.347C313.04 275.137 308.09 285.097 314.2 293.037C320.31 300.977 322.77 312.317 324.45 317.377C326.13 322.437 334.15 327.377 342.31 315.747C350.47 304.117 350.51 299.767 347.2 299.097C343.89 298.427 343.44 304.997 346.7 310.477C355.99 325.157 351.51 333.147 347.29 338.547C343.07 343.947 323.07 348.837 313.41 344.197C303.75 339.557 312.87 314.247 317.17 315.507C321.47 316.767 311.48 343.867 296.34 343.697C281.2 343.527 274.09 334.197 268.69 326.047C263.29 317.897 272.08 307.137 269.86 307.307C267.64 307.477 264.36 314.157 271.01 319.797C277.66 325.437 285.33 320.477 290.07 315.847C280.37 328.257 298.87 328.477 293.57 337.727C288.27 346.977 264.7 349.007 245.19 350.697C225.68 352.387 216.32 351.707 192.75 348.777C169.18 345.847 151.36 364.677 156.55 366.597C161.74 368.517 175.04 353.627 187.22 344.377C199.4 335.127 202.22 335.577 234.47 320.137C241.53 316.757 248.66 313.787 255.31 309.667C261.6 305.767 268.42 302.467 273.6 297.177C274.94 295.807 276.17 294.297 276.92 292.537C277.67 290.777 277.93 288.747 277.31 286.947C276.36 284.167 273.59 282.427 270.83 281.437C264.93 279.307 258.47 279.607 252.22 279.977C248.31 280.207 244.5 281.067 240.84 282.457C218.29 291.017 204.41 293.747 169.71 322.547C135.01 351.347 112.8 374.077 102.91 401.317C93.02 428.557 98.75 434.627 108.46 435.317C118.17 436.007 121.99 418.657 102.39 416.757C82.79 414.857 59.02 434.457 47.39 449.377C35.76 464.297 34.2 474.707 36.81 484.247C39.42 493.787 49.3 498.477 57.8 486.847C66.3 475.217 74.63 455.267 64.91 434.797C55.19 414.327 41.84 405.127 23.79 400.797C5.74 396.467 2 387.147 2 382.287"
    stroke="url(#paint0_linear_1_5)"
    stroke-linejoin="round"
    stroke-linecap="round"
    stroke-width="3"
    stroke-miterlimit="10"
    class="svg-elem-1"></path>
<defs>

<linearGradient id="paint0_linear_1_5" x1="156.504" y1="0.497986" x2="156.504" y2="472.803" gradientUnits="userSpaceOnUse">
  <stop offset="0%" stop-color="#D4B3F8">
    <animate attributeName="stop-color" values="#D4B3F8;#A3C4F3;#8A7DF0;#D4B3F8" dur="5s" repeatCount="indefinite"></animate>
  </stop>
  <stop offset="100%" stop-color="#8A7DF0">
    <animate attributeName="stop-color" values="#8A7DF0;#A3C4F3;#D4B3F8;#8A7DF0" dur="5s" repeatCount="indefinite"></animate>
  </stop>
</linearGradient>
</defs>
</svg>